<?xml version="1.0" encoding="UTF-8" standalone="no" ?>
<!DOCTYPE svg PUBLIC "-//W3C//DTD SVG 1.1//EN" "http://www.w3.org/Graphics/SVG/1.1/DTD/svg11.dtd">
<svg xmlns="http://www.w3.org/2000/svg" xmlns:xlink="http://www.w3.org/1999/xlink" version="1.1" width="1280" height="1024" viewBox="0 0 1280 1024" xml:space="preserve">
<desc>Created with Fabric.js 5.3.0</desc>
<defs>
</defs>
<g transform="matrix(1 0 0 1 640 512)" id="background-logo"  >
<rect style="stroke: none; stroke-width: 0; stroke-dasharray: none; stroke-linecap: butt; stroke-dashoffset: 0; stroke-linejoin: miter; stroke-miterlimit: 4; fill: rgb(255,255,255); fill-opacity: 0; fill-rule: nonzero; opacity: 1;"  paint-order="stroke"  x="-640" y="-512" rx="0" ry="0" width="1280" height="1024" />
</g>
<g transform="matrix(4.56520804107614 0 0 4.56520804107614 640.6967451220735 432.44937983064443)" id="logo-logo"  >
<g style=""  paint-order="stroke"   >
		<g transform="matrix(0.3569619719808431 0 0 0.3569619719808431 0 -0.017848098599046125)"  >
<linearGradient id="SVGID_516272" gradientUnits="userSpaceOnUse" gradientTransform="matrix(1 0 0 1 669.2 615.6000000000001)"  x1="0" y1="0" x2="0" y2="319">
<stop offset="0%" style="stop-color:rgb(48,35,174);stop-opacity: 1"/>
<stop offset="100%" style="stop-color:rgb(200,109,215);stop-opacity: 1"/>
</linearGradient>
<path style="stroke: none; stroke-width: 1; stroke-dasharray: none; stroke-linecap: butt; stroke-dashoffset: 0; stroke-linejoin: miter; stroke-miterlimit: 4; fill: url(#SVGID_516272); fill-rule: nonzero; opacity: 1;"  paint-order="stroke"  transform=" translate(-960.1000000000001, -774.95)" d="M 904.3 906.4 L 883.5999999999999 906.4 L 894.0999999999999 865.9 L 911.4999999999999 865.9 L 912.1999999999999 861.9 L 895.1999999999999 861.9 L 905.6999999999999 821.4 L 908.4999999999999 821.4 C 906.0999999999999 819.1 902.9999999999999 818 899.0999999999999 818 C 898.8 818 898.5999999999999 818 898.3 818 L 808.8 821.4 L 812.8 821.4 L 802.3 861.9 L 761.8 861.9 L 772.3 821.4 L 781.5999999999999 821.4 C 779.5999999999999 820.6 777.8999999999999 819.1999999999999 776.6999999999999 817.4 L 773.3 817.4 L 774.8 811.5 C 774.6999999999999 809.4 775.3 807.4 776.3 805.6 L 783.6999999999999 776.9 L 824.1999999999999 776.9 L 821.6999999999999 786.4 L 826.0999999999999 784.8 L 828.0999999999999 776.9 L 847.8 776.9 L 858.8 772.9 L 829.1999999999999 772.9 L 839.6999999999999 732.4 L 880.1999999999999 732.4 L 870.9 768.5 L 875.3 766.9 L 884.1999999999999 732.4 L 924.6999999999999 732.4 L 920.9999999999999 746.8 C 922.6999999999999 745.4 924.4999999999999 743.9 926.0999999999999 742.4 L 928.6999999999999 732.5 L 935.4 732.5 C 936.5 731.2 937.5 729.9 938.5 728.5 L 929.7 728.5 L 940.2 688 L 958.7 688 L 960.1 684 L 941 684 L 951.5 643.5 L 974.2 643.5 L 975.6 639.5 L 952.5 639.5 L 958.7 615.6 L 954.7 615.6 L 948.5 639.5 L 908 639.5 L 914.2 615.6 L 910.2 615.6 L 904 639.5 L 863.5 639.5 L 869.7 615.6 L 865.7 615.6 L 859.5 639.5 L 819 639.5 L 825.2 615.6 L 821.2 615.6 L 815 639.5 L 774.5 639.5 L 780.7 615.6 L 776.7 615.6 L 770.5 639.5 L 730 639.5 L 736.2 615.6 L 732.2 615.6 L 726 639.5 L 669.2 639.5 L 669.2 643.5 L 725 643.5 L 714.5 684 L 669.2 684 L 669.2 688 L 713.5 688 L 703 728.5 L 669.2 728.5 L 669.2 732.5 L 702 732.5 L 691.8 773 L 669.4 773 L 669.4 777 L 690.6999999999999 777 L 680.1999999999999 817.5 L 669.3 817.5 L 669.3 821.5 L 679.0999999999999 821.5 L 669.3 859.6 L 669.3 875 L 671.6999999999999 865.9 L 712.1999999999999 865.9 L 701.6999999999999 906.4 L 669.3 906.4 L 669.3 910.4 L 700.5999999999999 910.4 L 694.3999999999999 934.3 L 698.3999999999999 934.3 L 704.5999999999999 910.4 L 745.0999999999999 910.4 L 738.8999999999999 934.3 L 742.8999999999999 934.3 L 749.0999999999999 910.4 L 789.5999999999999 910.4 L 783.8 933 C 785.5 931.9 787.3 930.3 789 928.3 L 793.6 910.4 L 797.8000000000001 910.4 L 799.2 906.4 L 794.6 906.4 L 805.1 865.9 L 813.5 865.9 L 814.9 861.9 L 806.1 861.9 L 816.6 821.4 L 857.1 821.4 L 846.6 861.9 L 837.2 861.9 C 837.3000000000001 862.8 837.2 863.8 837.1 864.6999999999999 L 836.9 865.9 L 845.6 865.9 L 835.1 906.4 L 829.8000000000001 906.4 L 829.1 910.4 L 834.1 910.4 L 830.4 924.8 L 834.4 924.5999999999999 L 838.1 910.3 L 878.6 910.3 L 874.3000000000001 926.8 C 875.6 928.1999999999999 876.5000000000001 929.9 877.0000000000001 931.8 L 882.6000000000001 910.3 L 903.7000000000002 910.3 L 904.3 906.4 z M 757.7 861.9 L 717.2 861.9 L 727.7 821.4 L 768.2 821.4 L 757.7 861.9 z M 769.2 817.5 L 728.7 817.5 L 739.2 777 L 779.7 777 L 769.2 817.5 z M 780.7 773 L 740.2 773 L 750.7 732.5 L 791.2 732.5 L 780.7 773 z M 751.7 728.5 L 762.2 688 L 802.7 688 L 792.2 728.5 L 751.7 728.5 z M 825.2 773 L 784.7 773 L 795.2 732.5 L 835.7 732.5 L 825.2 773 z M 836.6 728.5 L 796.1 728.5 L 806.6 688 L 847.1 688 L 836.6 728.5 z M 881.1 728.5 L 840.6 728.5 L 851.1 688 L 891.6 688 L 881.1 728.5 z M 925.5 728.5 L 885 728.5 L 895.5 688 L 936 688 L 925.5 728.5 z M 907 643.6 L 947.5 643.6 L 937 684.1 L 896.5 684.1 L 907 643.6 z M 862.6 643.6 L 903 643.6 L 892.5 684.1 L 852 684.1 L 862.6 643.6 z M 818.1 643.6 L 858.6 643.6 L 848.1 684.1 L 807.6 684.1 L 818.1 643.6 z M 773.7 643.6 L 814.2 643.6 L 803.7 684.1 L 763.2 684.1 L 773.7 643.6 z M 729.2 643.6 L 769.7 643.6 L 759.2 684.1 L 718.7 684.1 L 729.2 643.6 z M 717.7 688.1 L 758.2 688.1 L 747.7 728.6 L 707.2 728.6 L 717.7 688.1 z M 706.2 732.5 L 746.7 732.5 L 736.2 773 L 695.7 773 L 706.2 732.5 z M 694.8 777 L 735.3 777 L 724.8 817.5 L 684.3 817.5 L 694.8 777 z M 672.8 861.9 L 683.3 821.4 L 723.8 821.4 L 713.3 861.9 L 672.8 861.9 z M 746.2 906.4 L 705.7 906.4 L 716.2 865.9 L 756.7 865.9 L 746.2 906.4 z M 790.7 906.4 L 750.2 906.4 L 760.7 865.9 L 801.2 865.9 L 790.7 906.4 z M 861.1 821.5 L 901.6 821.5 L 891.1 862 L 850.6 862 L 861.1 821.5 z M 879.6 906.4 L 839.1 906.4 L 849.6 865.9 L 890.1 865.9 L 879.6 906.4 z M 1250.6 643.6 L 1250.6 639.6 L 1219.3 639.6 L 1225.5 615.7 L 1221.5 615.7 L 1215.3 639.6 L 1174.8 639.6 L 1181 615.7 L 1177 615.7 L 1170.8 639.6 L 1130.3 639.6 L 1136.1 617 C 1134.3999999999999 618.1 1132.6 619.7 1130.8999999999999 621.7 L 1126.3 639.6 L 1122.1 639.6 L 1120.6999999999998 643.6 L 1125.2999999999997 643.6 L 1114.7999999999997 684.1 L 1106.3999999999996 684.1 L 1104.9999999999995 688.1 L 1113.7999999999995 688.1 L 1103.2999999999995 728.6 L 1062.7999999999995 728.6 L 1073.2999999999995 688.1 L 1082.6999999999996 688.1 C 1082.5999999999997 687.2 1082.6999999999996 686.2 1082.7999999999995 685.3000000000001 L 1082.9999999999995 684.1 L 1074.2999999999995 684.1 L 1084.7999999999995 643.6 L 1090.0999999999995 643.6 L 1090.7999999999995 639.6 L 1085.7999999999995 639.6 L 1089.4999999999995 625.2 L 1085.4999999999995 625.4000000000001 L 1081.7999999999995 639.7 L 1041.2999999999995 639.7 L 1045.5999999999995 623.2 C 1044.2999999999995 621.8000000000001 1043.3999999999994 620.1 1042.8999999999994 618.2 L 1037.2999999999995 639.7 L 1016.1999999999995 639.7 L 1015.4999999999994 643.7 L 1036.1999999999994 643.7 L 1025.6999999999994 684.2 L 1008.2999999999994 684.2 L 1007.5999999999993 688.2 L 1024.5999999999995 688.2 L 1014.0999999999995 728.7 L 1011.2999999999995 728.7 C 1013.6999999999995 731 1016.7999999999995 732.1 1020.6999999999995 732.1 C 1020.9999999999994 732.1 1021.1999999999995 732.1 1021.4999999999994 732.1 L 1111.0999999999995 728.7 L 1107.0999999999995 728.7 L 1117.5999999999995 688.2 L 1158.0999999999995 688.2 L 1147.5999999999995 728.7 L 1138.2999999999995 728.7 C 1140.2999999999995 729.5 1141.9999999999995 730.9000000000001 1143.1999999999996 732.7 L 1146.5999999999997 732.7 L 1145.0999999999997 738.6 C 1145.1999999999996 740.7 1144.5999999999997 742.7 1143.5999999999997 744.5 L 1136.1999999999996 773.2 L 1095.6999999999996 773.2 L 1098.1999999999996 763.7 L 1093.7999999999995 765.3000000000001 L 1091.7999999999995 773.2 L 1072.0999999999995 773.2 L 1061.0999999999995 777.2 L 1090.6999999999994 777.2 L 1080.1999999999994 817.7 L 1039.6999999999994 817.7 L 1048.9999999999993 781.6 L 1044.5999999999992 783.2 L 1035.6999999999991 817.7 L 995.1999999999991 817.7 L 998.8999999999992 803.3000000000001 C 997.1999999999991 804.7 995.3999999999992 806.2 993.7999999999992 807.7 L 991.1999999999991 817.6 L 984.4999999999991 817.6 C 983.3999999999991 818.9 982.3999999999991 820.2 981.3999999999991 821.6 L 990.199999999999 821.6 L 980 861.9 L 961.5 861.9 L 960.1 865.9 L 979 865.9 L 968.5 906.4 L 945.8 906.4 L 944.4 910.4 L 967.5 910.4 L 961.3 934.3 L 965.3 934.3 L 971.5 910.4 L 1012 910.4 L 1005.8 934.3 L 1009.8 934.3 L 1016 910.4 L 1056.5 910.4 L 1050.3 934.3 L 1054.3 934.3 L 1060.5 910.4 L 1101 910.4 L 1094.8 934.3 L 1098.8 934.3 L 1105 910.4 L 1145.5 910.4 L 1139.3 934.3 L 1143.3 934.3 L 1149.5 910.4 L 1190 910.4 L 1183.8 934.3 L 1187.8 934.3 L 1194 910.4 L 1250.8 910.4 L 1250.8 906.4 L 1195 906.4 L 1205.5 865.9 L 1250.8 865.9 L 1250.8 861.9 L 1206.5 861.9 L 1217 821.4 L 1250.8 821.4 L 1250.8 817.4 L 1218 817.4 L 1228.5 776.9 L 1250.9 776.9 L 1250.9 772.9 L 1229.6000000000001 772.9 L 1240.1000000000001 732.4 L 1251.0000000000002 732.4 L 1251.0000000000002 728.4 L 1241.2000000000003 728.4 L 1251.0000000000002 690.3 L 1251.0000000000002 675 L 1248.6000000000001 684.1 L 1208.1000000000001 684.1 L 1218.6000000000001 643.6 L 1250.6 643.6 z M 1040.4 643.6 L 1080.9 643.6 L 1070.4 684.1 L 1029.9 684.1 L 1040.4 643.6 z M 1018.5 728.5 L 1029 688 L 1069.5 688 L 1059 728.5 L 1018.5 728.5 z M 1118.9 684.1 L 1129.4 643.6 L 1169.9 643.6 L 1159.4 684.1 L 1118.9 684.1 z M 1162.3 688.1 L 1202.8 688.1 L 1192.3 728.6 L 1151.8 728.6 L 1162.3 688.1 z M 1150.8 732.5 L 1191.3 732.5 L 1180.8 773 L 1140.3 773 L 1150.8 732.5 z M 1139.3 777 L 1179.8 777 L 1169.3 817.5 L 1128.8 817.5 L 1139.3 777 z M 1168.3 821.5 L 1157.8 862 L 1117.3 862 L 1127.8 821.5 L 1168.3 821.5 z M 1094.8 777 L 1135.3 777 L 1124.8 817.5 L 1084.3 817.5 L 1094.8 777 z M 1083.4 821.5 L 1123.9 821.5 L 1113.4 862 L 1072.9 862 L 1083.4 821.5 z M 1038.9 821.5 L 1079.4 821.5 L 1068.9 862 L 1028.4 862 L 1038.9 821.5 z M 994.5 821.5 L 1035 821.5 L 1024.5 862 L 984 862 L 994.5 821.5 z M 1013 906.4 L 972.5 906.4 L 983 865.9 L 1023.5 865.9 L 1013 906.4 z M 1057.4 906.4 L 1017 906.4 L 1027.5 865.9 L 1068 865.9 L 1057.4 906.4 z M 1101.9 906.4 L 1061.4 906.4 L 1071.9 865.9 L 1112.4 865.9 L 1101.9 906.4 z M 1146.3 906.4 L 1105.8 906.4 L 1116.3 865.9 L 1156.8 865.9 L 1146.3 906.4 z M 1190.8 906.4 L 1150.3 906.4 L 1160.8 865.9 L 1201.3 865.9 L 1190.8 906.4 z M 1202.3 861.9 L 1161.8 861.9 L 1172.3 821.4 L 1212.8 821.4 L 1202.3 861.9 z M 1213.8 817.5 L 1173.3 817.5 L 1183.8 777 L 1224.3 777 L 1213.8 817.5 z M 1225.2 773 L 1184.7 773 L 1195.2 732.5 L 1235.7 732.5 L 1225.2 773 z M 1247.2 688.1 L 1236.7 728.6 L 1196.2 728.6 L 1206.7 688.1 L 1247.2 688.1 z M 1203.8 684.1 L 1163.3 684.1 L 1173.8 643.6 L 1214.3 643.6 L 1203.8 684.1 z" stroke-linecap="round" />
</g>
		<g transform="matrix(0.3569619719808431 0 0 0.3569619719808431 -0.035696197198035406 0)"  >
<linearGradient id="SVGID_516275" gradientUnits="userSpaceOnUse" gradientTransform="matrix(1 0 0 1 741.2 517.8)"  x1="0" y1="0" x2="0" y2="514">
<stop offset="0%" style="stop-color:rgb(48,35,174);stop-opacity: 1"/>
<stop offset="100%" style="stop-color:rgb(200,109,215);stop-opacity: 1"/>
</linearGradient>
<path style="stroke: none; stroke-width: 1; stroke-dasharray: none; stroke-linecap: butt; stroke-dashoffset: 0; stroke-linejoin: miter; stroke-miterlimit: 4; fill: url(#SVGID_516275); fill-rule: nonzero; opacity: 1;"  paint-order="stroke"  transform=" translate(-960, -775)" d="M 1138.8 517.8 L 1129 573.6999999999999 C 1127.2 584.0999999999999 1131.1 591.1999999999999 1138.6 590.9 L 1178.8 589.4 L 1134.7 605.5 C 1126.5 608.5 1118.1000000000001 618.1 1114.3 629 L 1093.7 687.2 L 1103.5 631.3000000000001 C 1105.3 620.9000000000001 1101.4 613.8000000000001 1093.9 614.1 L 1053.7 615.6 L 1097.8 599.5 C 1106 596.5 1114.3999999999999 586.9 1118.2 576 L 1138.8 517.8 z M 805.7 921 C 801.9000000000001 931.8 793.5 941.5 785.3000000000001 944.5 L 741.2 960.6 L 781.4000000000001 959.1 C 788.9000000000001 958.8000000000001 792.8000000000001 965.9 791.0000000000001 976.3000000000001 L 781.2000000000002 1032.2 L 801.8000000000002 974 C 805.6000000000001 963.2 814.0000000000002 953.5 822.2000000000002 950.5 L 866.3000000000002 934.4 L 826.1000000000001 935.9 C 818.6000000000001 936.1999999999999 814.7000000000002 929.1 816.5000000000001 918.6999999999999 L 826.3000000000001 862.8 L 805.7 921 z" stroke-linecap="round" />
</g>
		<g transform="matrix(0.3569619719808431 0 0 0.3569619719808431 -56.89973833374637 61.593788265294535)"  >
<path style="stroke: none; stroke-width: 1; stroke-dasharray: none; stroke-linecap: butt; stroke-dashoffset: 0; stroke-linejoin: miter; stroke-miterlimit: 4; fill: rgb(145,94,255); fill-rule: nonzero; opacity: 1;"  paint-order="stroke"  transform=" translate(-800.7, -947.5500000000001)" d="M 790.4 985.6 L 795 972.7 C 799.3 960.6 808.5 950.2 817.8 946.8000000000001 L 838 939.4000000000001 L 823.2 940.0000000000001 C 823 940.0000000000001 822.8000000000001 940.0000000000001 822.6 940.0000000000001 C 818.6 940.0000000000001 815.2 938.5000000000001 812.7 935.5000000000001 C 809.3000000000001 931.5000000000001 808.2 925.3000000000001 809.5 918.1000000000001 L 811 909.5000000000001 L 806.4 922.4000000000001 C 802.1 934.5000000000001 792.9 944.9000000000001 783.6 948.3000000000001 L 763.4 955.7 L 778.1999999999999 955.1 C 778.4 955.1 778.5999999999999 955.1 778.8 955.1 C 782.8 955.1 786.1999999999999 956.6 788.6999999999999 959.6 C 792.0999999999999 963.6 793.1999999999999 969.8000000000001 791.9 977 L 790.4 985.6 z" stroke-linecap="round" />
</g>
		<g transform="matrix(0.3569619719808431 0 0 0.3569619719808431 54.65087791026713 -61.558092068096386)"  >
<path style="stroke: none; stroke-width: 1; stroke-dasharray: none; stroke-linecap: butt; stroke-dashoffset: 0; stroke-linejoin: miter; stroke-miterlimit: 4; fill: rgb(145,94,255); fill-rule: nonzero; opacity: 1;"  paint-order="stroke"  transform=" translate(-1113.2, -602.5500000000001)" d="M 1102.9 640.6 L 1107.5 627.7 C 1111.8 615.6 1120.9 605.2 1130.3 601.8000000000001 L 1150.5 594.4000000000001 L 1135.7 595.0000000000001 C 1135.5 595.0000000000001 1135.3 595.0000000000001 1135.1000000000001 595.0000000000001 C 1131.1000000000001 595.0000000000001 1127.7 593.5000000000001 1125.2 590.5000000000001 C 1121.8 586.5000000000001 1120.7 580.3000000000001 1122 573.1000000000001 L 1123.5 564.5000000000001 L 1118.9 577.4000000000001 C 1114.6000000000001 589.5000000000001 1105.4 599.9000000000001 1096.1000000000001 603.3000000000001 L 1075.9 610.7 L 1090.7 610.1 C 1090.9 610.1 1091.1000000000001 610.1 1091.3 610.1 C 1095.3 610.1 1098.7 611.6 1101.2 614.6 C 1104.6000000000001 618.6 1105.7 624.8000000000001 1104.4 632 L 1102.9 640.6 z" stroke-linecap="round" />
</g>
		<g transform="matrix(0.3569619719808431 0 0 0.3569619719808431 -0.035696197198035406 -0.017848098599046125)"  >
<linearGradient id="SVGID_516276" gradientUnits="userSpaceOnUse" gradientTransform="matrix(1 0 0 1 785.7 539.2)"  x1="0" y1="0" x2="0" y2="471">
<stop offset="0%" style="stop-color:rgb(48,35,174);stop-opacity: 1"/>
<stop offset="100%" style="stop-color:rgb(200,109,215);stop-opacity: 1"/>
</linearGradient>
<path style="stroke: none; stroke-width: 1; stroke-dasharray: none; stroke-linecap: butt; stroke-dashoffset: 0; stroke-linejoin: miter; stroke-miterlimit: 4; fill: url(#SVGID_516276); fill-rule: nonzero; opacity: 1;"  paint-order="stroke"  transform=" translate(-960, -774.95)" d="M 1022.9 539.2 L 995.5 695 C 990.4 724 1001.4 743.7 1022.3 742.9 L 1134.3 738.6999999999999 L 1011.4 783.4 C 988.5 791.6999999999999 965.1 818.6 954.5 848.6999999999999 L 897.2 1010.6999999999999 L 924.5 855 C 929.6 826 918.6 806.3 897.7 807.1 L 785.7 811.3000000000001 L 908.6 766.6 C 931.5 758.3000000000001 954.9 731.4 965.5 701.3000000000001 L 1022.9 539.2 z" stroke-linecap="round" />
</g>
		<g transform="matrix(0.3569619719808431 0 0 0.3569619719808431 -1.1065821131405755 0.017848098599046125)"  >
<path style="stroke: none; stroke-width: 1; stroke-dasharray: none; stroke-linecap: butt; stroke-dashoffset: 0; stroke-linejoin: miter; stroke-miterlimit: 4; fill: rgb(145,94,255); fill-rule: nonzero; opacity: 1;"  paint-order="stroke"  transform=" translate(-957, -775.05)" d="M 925.5 855.7 C 928.7 837.7 926 822.5 918 813 C 912.5 806.5 904.9 803.1 896 803.1 C 895.6 803.1 895.1 803.1 894.7 803.1 L 808.1 806.3000000000001 L 907 770.3000000000001 C 930.9 761.6 955.3 733.7 966.3 702.5000000000001 L 1007.5999999999999 585.8000000000001 L 988.4999999999999 694.3000000000001 C 985.2999999999998 712.3000000000001 987.9999999999999 727.5000000000001 995.9999999999999 737.0000000000001 C 1001.4999999999999 743.5000000000001 1009.0999999999999 746.9000000000001 1017.9999999999999 746.9000000000001 C 1018.3999999999999 746.9000000000001 1018.8999999999999 746.9000000000001 1019.2999999999998 746.9000000000001 L 1105.8999999999999 743.7 L 1006.9999999999999 779.7 C 983.0999999999999 788.4000000000001 958.6999999999999 816.3000000000001 947.6999999999999 847.5 L 906.4 964.3 L 925.5 855.7 z" stroke-linecap="round" />
</g>
		<g transform="matrix(0.3569619719808431 0 0 0.3569619719808431 -0.040865352937771604 -0.024861634412076228)"  >
<linearGradient id="SVGID_516277" gradientUnits="userSpaceOnUse" gradientTransform="matrix(1 0 0 1 750.8184770443495 596.0607042970205)"  x1="209.16704198527987" y1="0" x2="209.16704198527987" y2="357.73929570297935">
<stop offset="0%" style="stop-color:rgb(255,255,255);stop-opacity: 1"/>
<stop offset="100%" style="stop-color:rgb(145,94,255);stop-opacity: 1"/>
</linearGradient>
<path style="stroke: none; stroke-width: 1; stroke-dasharray: none; stroke-linecap: butt; stroke-dashoffset: 0; stroke-linejoin: miter; stroke-miterlimit: 4; fill: url(#SVGID_516277); fill-rule: nonzero; opacity: 1;"  paint-order="stroke"  transform=" translate(-959.9855190296294, -774.9303521485101)" d="M 1144.5 833 C 1131.6 810.9 1114.3 788 1093.7 765.2 C 1083.2 753.5 1071.7 741.9000000000001 1059.6000000000001 730.5 C 1047.8000000000002 719.4 1035.3000000000002 708.5 1022.2000000000002 698 C 1017.5000000000001 694.2 1012.8000000000002 690.5 1008.1000000000001 686.9 C 995.1000000000001 676.9 981.9000000000001 667.6 968.8000000000002 659 C 932.9000000000002 635.5 897.1000000000001 617.5 864.5000000000002 606.8 C 814.5000000000002 590.3 777.7000000000003 592.9 760.6000000000003 614 C 743.6000000000003 635.1 748.9000000000002 671.7 775.4000000000002 717 C 788.4000000000002 739.1 805.6000000000003 762 826.2000000000002 784.8 L 833.3000000000002 782.1999999999999 C 812.2000000000002 759.0999999999999 794.6000000000001 735.8 781.5000000000002 713.4 C 756.8000000000002 671.3 751.2000000000003 636.6999999999999 766.1000000000003 618.3 C 774.2000000000003 608.1999999999999 788.5000000000002 603.0999999999999 807.4000000000002 603.0999999999999 C 822.9000000000002 603.0999999999999 841.5000000000002 606.4999999999999 862.3000000000002 613.3999999999999 C 894.8000000000002 624.0999999999999 930.5000000000002 642.0999999999999 966.4000000000002 665.6999999999998 C 979.9000000000002 674.5999999999998 993.4000000000002 684.1999999999998 1006.7000000000002 694.4999999999998 C 1010.4000000000002 697.3999999999997 1014.1000000000001 700.2999999999997 1017.8000000000002 703.2999999999997 C 1028.9 712.1999999999997 1039.5000000000002 721.3999999999997 1049.7000000000003 730.6999999999997 C 1062.9000000000003 742.7999999999997 1075.3000000000002 755.1999999999997 1086.6000000000004 767.5999999999997 C 1107.7000000000003 790.6999999999997 1125.3000000000004 813.9999999999997 1138.4000000000003 836.3999999999996 C 1163.1000000000004 878.4999999999997 1168.7000000000003 913.0999999999997 1153.8000000000004 931.4999999999997 C 1139.0000000000005 949.8999999999996 1103.9000000000003 951.6999999999997 1057.6000000000004 936.3999999999996 C 1025.1000000000004 925.6999999999996 989.4000000000003 907.6999999999996 953.5000000000003 884.0999999999997 L 951.1000000000004 890.8999999999996 C 987.0000000000003 914.3999999999996 1022.8000000000004 932.3999999999996 1055.4000000000003 943.0999999999997 C 1077.2000000000003 950.2999999999997 1096.4000000000003 953.7999999999997 1112.7000000000003 953.7999999999997 C 1133.8000000000002 953.7999999999997 1149.7000000000003 947.7999999999997 1159.3000000000002 935.8999999999997 C 1176.4 915 1171.1 878.4 1144.5 833 z M 870.3 819.2 L 860.4 819.6 C 872.1999999999999 830.7 884.6999999999999 841.6 897.8 852.1 C 902.5 855.9 907.1999999999999 859.6 911.9 863.2 L 913.3 855.4000000000001 C 909.5999999999999 852.5000000000001 905.9 849.6000000000001 902.1999999999999 846.6000000000001 C 891.1 837.7 880.4 828.5 870.3 819.2 z" stroke-linecap="round" />
</g>
</g>
</g>
<g transform="matrix(1.858041962225291 0 0 1.858041962225291 640.6967451220735 929.5623018549251)" id="text-logo"  >
<g style=""  paint-order="stroke"   >
		<g transform="matrix(1 0 0 1 0 0)" id="text-logo-path-0"  >
<path style="stroke: rgb(22,17,48); stroke-width: 4.281108393103752; stroke-dasharray: none; stroke-linecap: butt; stroke-dashoffset: 0; stroke-linejoin: miter; stroke-miterlimit: 4; fill: rgb(145,94,255); fill-rule: nonzero; opacity: 1;"  paint-order="stroke"  transform=" translate(-208.50500000000002, 35.21)" d="M 5.03 -70.42 L 5.03 0 L 45.27 0 L 45.27 -10.06 L 20.12 -10.06 L 20.12 -30.18 L 40.24 -30.18 L 40.24 -40.24 L 20.12 -40.24 L 20.12 -60.36 L 45.27 -60.36 L 45.27 -70.42 Z M 67.31 -70.42 L 67.31 0 L 102.52 0 L 102.52 -5.03 L 107.55 -5.03 L 107.55 -10.06 L 112.58 -10.06 L 112.58 -60.36 L 107.55 -60.36 L 107.55 -65.39 L 102.52 -65.39 L 102.52 -70.42 Z M 97.49 -55.33 L 97.49 -15.09 L 92.46 -15.09 L 92.46 -10.06 L 82.4 -10.06 L 82.4 -60.36 L 92.46 -60.36 L 92.46 -55.33 Z M 134.61 -70.42 L 134.61 -10.06 L 139.64 -10.06 L 139.64 -5.03 L 144.67 -5.03 L 144.67 0 L 164.79 0 L 164.79 -5.03 L 169.82 -5.03 L 169.82 -10.06 L 174.85 -10.06 L 174.85 -5.03 L 179.88 -5.03 L 179.88 0 L 200 0 L 200 -5.03 L 205.04 -5.03 L 205.04 -10.06 L 210.07 -10.06 L 210.07 -70.42 L 194.97 -70.42 L 194.97 -15.09 L 189.94 -15.09 L 189.94 -10.06 L 184.91 -10.06 L 184.91 -15.09 L 179.88 -15.09 L 179.88 -70.42 L 164.79 -70.42 L 164.79 -15.09 L 159.76 -15.09 L 159.76 -10.06 L 154.73 -10.06 L 154.73 -15.09 L 149.7 -15.09 L 149.7 -70.42 Z M 237.13 -60.36 L 232.1 -60.36 L 232.1 0 L 247.19 0 L 247.19 -30.18 L 262.28 -30.18 L 262.28 0 L 277.37 0 L 277.37 -60.36 L 272.34 -60.36 L 272.34 -65.39 L 267.31 -65.39 L 267.31 -70.42 L 242.16 -70.42 L 242.16 -65.39 L 237.13 -65.39 Z M 262.28 -55.33 L 262.28 -40.24 L 247.19 -40.24 L 247.19 -55.33 L 252.22 -55.33 L 252.22 -60.36 L 257.25 -60.36 L 257.25 -55.33 Z M 299.4 -70.42 L 299.4 0 L 314.49 0 L 314.49 -25.15 L 324.56 -25.15 L 324.56 -20.12 L 329.59 -20.12 L 329.59 0 L 344.68 0 L 344.68 -25.15 L 339.65 -25.15 L 339.65 -30.18 L 334.62 -30.18 L 334.62 -35.21 L 339.65 -35.21 L 339.65 -40.24 L 344.68 -40.24 L 344.68 -60.36 L 339.65 -60.36 L 339.65 -65.39 L 334.62 -65.39 L 334.62 -70.42 Z M 329.59 -55.33 L 329.59 -40.24 L 324.56 -40.24 L 324.56 -35.21 L 314.49 -35.21 L 314.49 -60.36 L 324.56 -60.36 L 324.56 -55.33 Z M 366.71 -70.42 L 366.71 0 L 401.92 0 L 401.92 -5.03 L 406.95 -5.03 L 406.95 -10.06 L 411.98 -10.06 L 411.98 -60.36 L 406.95 -60.36 L 406.95 -65.39 L 401.92 -65.39 L 401.92 -70.42 Z M 396.89 -55.33 L 396.89 -15.09 L 391.86 -15.09 L 391.86 -10.06 L 381.8 -10.06 L 381.8 -60.36 L 391.86 -60.36 L 391.86 -55.33 Z" stroke-linecap="round" />
</g>
</g>
</g>
</svg>